# xmcd
#
# Track frame offsets:
#	150
#	20640
#	33975
#	52592
#	68742
#	90085
#	110737
#	129847
#	149212
#	166520
#	182647
#	198852
#	219007
#	233050
#	253480
#	274330
#
# Disc length: 3900 seconds
#
# Revision: 1
# Processed by: cddbd v1.5.1PL0 Copyright (c) Steve Scherf et al.
# Submitted via: CDex 1.50Beta5
#
DISCID=d60f3a10
DTITLE=五木ひろし - 五木ひろし全曲集
DYEAR=1988
DGENRE=World
TTITLE0=港の五番町
TTITLE1=かもめ町みなと町
TTITLE2=そして…めぐり逢い
TTITLE3=よこはま・たそがれ
TTITLE4=長良川艶歌
TTITLE5=おはん
TTITLE6=それは…黄昏
TTITLE7=契り
TTITLE8=長崎から船に乗って
TTITLE9=倖せさがして
TTITLE10=いくじなし
TTITLE11=細雪
TTITLE12=夜空
TTITLE13=死んでもいい
TTITLE14=追憶
TTITLE15=港の五番町
EXTD=
EXTT0=
EXTT1=
EXTT2=
EXTT3=
EXTT4=
EXTT5=
EXTT6=
EXTT7=
EXTT8=
EXTT9=
EXTT10=
EXTT11=
EXTT12=
EXTT13=
EXTT14=
EXTT15=
PLAYORDER=
